<svg width="1512" height="83" viewBox="0 0 1512 83" fill="none" xmlns="http://www.w3.org/2000/svg">
<path fill-rule="evenodd" clip-rule="evenodd" d="M137 89.9826C131.03 126.85 99.0526 155 60.5 155C17.6979 155 -17 120.302 -17 77.5C-17 34.6979 17.6979 0 60.5 0C99.0526 0 131.03 28.1502 137 65.0174C142.97 28.1502 174.947 0 213.5 0C256.302 0 291 34.6979 291 77.5C291 120.302 256.302 155 213.5 155C174.947 155 142.97 126.85 137 89.9826ZM446 77.5C446 34.6979 411.302 0 368.5 0C325.698 0 291 34.6979 291 77.5C291 120.302 325.698 155 368.5 155C411.302 155 446 120.302 446 77.5ZM601 77.5C601 34.6979 566.302 0 523.5 0C480.698 0 446 34.6979 446 77.5C446 120.302 480.698 155 523.5 155C566.302 155 601 120.302 601 77.5ZM756 77.5C756 120.302 721.302 155 678.5 155C635.698 155 601 120.302 601 77.5C601 34.6979 635.698 0 678.5 0C721.302 0 756 34.6979 756 77.5ZM911 77.5C911 120.302 876.302 155 833.5 155C790.698 155 756 120.302 756 77.5C756 34.6979 790.698 0 833.5 0C876.302 0 911 34.6979 911 77.5ZM1066 77.5C1066 120.302 1031.3 155 988.5 155C945.698 155 911 120.302 911 77.5C911 34.6979 945.698 0 988.5 0C1031.3 0 1066 34.6979 1066 77.5ZM1221 77.5C1221 120.302 1186.3 155 1143.5 155C1100.7 155 1066 120.302 1066 77.5C1066 34.6979 1100.7 0 1143.5 0C1186.3 0 1221 34.6979 1221 77.5ZM1221 77.5C1221 34.6979 1255.7 0 1298.5 0C1337.05 0 1369.03 28.1502 1375 65.0174C1380.97 28.1502 1412.95 0 1451.5 0C1494.3 0 1529 34.6979 1529 77.5C1529 120.302 1494.3 155 1451.5 155C1412.95 155 1380.97 126.85 1375 89.9826C1369.03 126.85 1337.05 155 1298.5 155C1255.7 155 1221 120.302 1221 77.5Z" fill="#509F6B" fill-opacity="0.51"/>
</svg>
